<svg width="85" height="85" viewBox="0 0 85 85" fill="none" xmlns="http://www.w3.org/2000/svg">
<path d="M38.5228 5.25702C43.1765 5.25702 47.6751 5.95508 51.898 7.31674C55.914 8.61807 59.5078 10.4623 62.5672 12.8151C68.5136 17.3654 71.7885 23.286 71.7885 29.491C71.7885 35.6874 68.5136 41.6167 62.5672 46.167C59.5078 48.5111 55.914 50.364 51.898 51.6653C47.6751 53.0356 43.1679 53.725 38.5228 53.725C36.7819 53.725 35.0324 53.6216 33.3261 53.432L31.7059 53.2424L30.258 54.0094C27.2762 55.5865 24.708 57.3532 22.2346 59.0596C20.4851 60.2575 18.7874 61.4296 17.0293 62.4638C18.8477 59.1717 19.8733 56.3105 20.2352 53.5699L20.7006 50.1054L17.6929 48.3301C13.8148 46.0377 10.6261 43.099 8.48018 39.8327C6.3429 36.5837 5.25702 33.102 5.25702 29.491C5.25702 23.2946 8.53189 17.3654 14.4784 12.8151C17.5378 10.471 21.1315 8.61807 25.1475 7.31674C29.379 5.95508 33.8776 5.26564 38.5228 5.25702ZM38.5228 0C17.2448 0 0 13.2029 0 29.491C0 39.0054 5.88614 47.4683 15.0213 52.8546C14.5904 56.0605 12.7892 59.8439 9.30751 64.8251C8.18716 66.4195 5.1019 68.8497 6.2481 70.3407C6.54973 70.6854 7.25641 70.8233 8.15269 70.8233C10.2038 70.8233 13.246 70.108 14.7369 69.4875C21.5883 66.6608 26.311 62.0415 32.7314 58.6373C34.6188 58.8528 36.5578 58.9734 38.5314 58.9734C59.8094 58.9734 77.0541 45.7706 77.0541 29.4824C77.0455 13.2029 59.8008 0 38.5228 0Z" fill="white"/>
<path d="M70.9352 68.8326C79.1568 63.9806 84.4569 56.3622 84.4569 47.7959C84.4569 44.1073 83.4745 40.5912 81.6991 37.4025C81.07 39.7293 80.1565 41.9959 78.9414 44.1935C78.8983 44.2711 78.8638 44.34 78.8207 44.409C79.0706 45.5207 79.1999 46.6497 79.1999 47.7872C79.1999 50.9328 78.2519 53.9664 76.3904 56.8104C74.5031 59.6802 71.6936 62.2742 68.2722 64.2995L65.2645 66.0748L65.7299 69.5392C66.0056 71.5817 66.6692 73.6932 67.7982 76.02C66.7813 75.3651 65.7816 74.6756 64.756 73.9689C62.5067 72.4263 60.1884 70.832 57.4824 69.3927L56.0345 68.6257L54.4143 68.8153C52.8976 68.9877 51.3377 69.0825 49.7951 69.0825C45.667 69.0825 37.8849 64.4891 36.4198 63.7565C34.8169 64.7304 33.2742 65.799 31.654 66.9021C31.5937 66.9452 31.5248 66.9883 31.4558 67.0314C37.3592 70.5993 41.6768 74.3395 49.7778 74.3395C51.5531 74.3395 53.294 74.2361 54.9918 74.0379C60.7745 77.1059 65.0232 81.2598 71.1937 83.8021C72.5295 84.3537 75.2701 85.0001 77.1143 85.0001C77.9244 85.0001 78.5622 84.8794 78.8293 84.5605C79.8635 83.2161 77.0799 81.0357 76.0715 79.5965C72.9346 75.1238 71.3144 71.7196 70.9352 68.8326Z" fill="white"/>
</svg>
