<svg width="84" height="15" viewBox="0 0 84 15" fill="none" xmlns="http://www.w3.org/2000/svg">
<circle cx="7.5" cy="7.5" r="7.5" fill="url(#paint0_linear_114_31)"/>
<path d="M24.7154 3.44902V13H23.4428L18.6345 5.63341V13H17.3685V3.44902H18.6345L23.4625 10.8353V3.44902H24.7154ZM32.2365 11.7864V8.13267C32.2365 7.85279 32.1796 7.61008 32.0659 7.40454C31.9566 7.19463 31.7904 7.03283 31.5674 6.91912C31.3444 6.80542 31.0689 6.74857 30.7409 6.74857C30.4348 6.74857 30.1658 6.80105 29.934 6.906C29.7066 7.01096 29.5273 7.14871 29.3961 7.31927C29.2693 7.48982 29.2059 7.67349 29.2059 7.87028H27.9923C27.9923 7.61664 28.0579 7.36519 28.1891 7.11592C28.3203 6.86665 28.5084 6.64143 28.7533 6.44026C29.0025 6.23472 29.2999 6.07292 29.6454 5.95484C29.9953 5.83239 30.3845 5.77117 30.813 5.77117C31.3291 5.77117 31.7839 5.85863 32.1775 6.03356C32.5754 6.20848 32.8859 6.47306 33.1089 6.82729C33.3363 7.17714 33.4501 7.61664 33.4501 8.14579V11.4519C33.4501 11.6881 33.4697 11.9395 33.5091 12.2063C33.5528 12.473 33.6162 12.7026 33.6993 12.895V13H32.4333C32.3721 12.8601 32.324 12.6742 32.289 12.4424C32.254 12.2063 32.2365 11.9876 32.2365 11.7864ZM32.4464 8.69681L32.4595 9.54958H31.2329C30.8874 9.54958 30.5791 9.578 30.3079 9.63485C30.0368 9.68733 29.8094 9.76824 29.6257 9.87756C29.4421 9.98689 29.3021 10.1246 29.2059 10.2908C29.1097 10.4526 29.0616 10.6429 29.0616 10.8615C29.0616 11.0846 29.1119 11.2879 29.2125 11.4716C29.313 11.6553 29.4639 11.8018 29.6651 11.9111C29.8706 12.016 30.1221 12.0685 30.4195 12.0685C30.7912 12.0685 31.1192 11.9898 31.4034 11.8324C31.6877 11.6749 31.9129 11.4825 32.0791 11.2551C32.2496 11.0277 32.3415 10.8069 32.3546 10.5926L32.8728 11.1764C32.8422 11.3601 32.7591 11.5634 32.6235 11.7864C32.488 12.0095 32.3065 12.2238 32.0791 12.4293C31.856 12.6305 31.5893 12.7988 31.2788 12.9344C30.9727 13.0656 30.6272 13.1312 30.2423 13.1312C29.7613 13.1312 29.3393 13.0372 28.9763 12.8491C28.6177 12.6611 28.3378 12.4096 28.1367 12.0948C27.9399 11.7755 27.8415 11.4191 27.8415 11.0255C27.8415 10.6451 27.9158 10.3105 28.0645 10.0219C28.2132 9.72888 28.4275 9.48617 28.7074 9.29375C28.9872 9.09696 29.324 8.94827 29.7176 8.84769C30.1111 8.7471 30.5506 8.69681 31.0361 8.69681H32.4464ZM39.6068 5.90236V6.83385H35.7693V5.90236H39.6068ZM37.0681 4.17715H38.2817V11.242C38.2817 11.4825 38.3189 11.664 38.3932 11.7864C38.4676 11.9089 38.5638 11.9898 38.6818 12.0292C38.7999 12.0685 38.9267 12.0882 39.0623 12.0882C39.1629 12.0882 39.2678 12.0795 39.3772 12.062C39.4909 12.0401 39.5761 12.0226 39.633 12.0095L39.6396 13C39.5433 13.0306 39.4165 13.059 39.2591 13.0853C39.106 13.1159 38.9202 13.1312 38.7015 13.1312C38.4041 13.1312 38.1308 13.0722 37.8815 12.9541C37.6323 12.836 37.4333 12.6392 37.2846 12.3637C37.1403 12.0838 37.0681 11.7077 37.0681 11.2354V4.17715ZM43.625 5.90236V13H42.4049V5.90236H43.625ZM42.313 4.01972C42.313 3.82293 42.3721 3.65675 42.4902 3.52118C42.6126 3.38561 42.7919 3.31783 43.0281 3.31783C43.2598 3.31783 43.4369 3.38561 43.5594 3.52118C43.6862 3.65675 43.7496 3.82293 43.7496 4.01972C43.7496 4.20776 43.6862 4.36957 43.5594 4.50514C43.4369 4.63633 43.2598 4.70193 43.0281 4.70193C42.7919 4.70193 42.6126 4.63633 42.4902 4.50514C42.3721 4.36957 42.313 4.20776 42.313 4.01972ZM49.0077 11.9045L50.9493 5.90236H52.1891L49.6374 13H48.824L49.0077 11.9045ZM47.3874 5.90236L49.3881 11.9373L49.5259 13H48.7125L46.141 5.90236H47.3874ZM57.4865 13.1312C56.9923 13.1312 56.5441 13.0481 56.1418 12.8819C55.7438 12.7114 55.4005 12.473 55.1119 12.1669C54.8276 11.8608 54.609 11.4978 54.4559 11.078C54.3028 10.6582 54.2263 10.199 54.2263 9.70045V9.42494C54.2263 8.84769 54.3116 8.33384 54.4821 7.8834C54.6527 7.4286 54.8845 7.04376 55.1775 6.72889C55.4705 6.41402 55.8028 6.17569 56.1746 6.01388C56.5463 5.85207 56.9311 5.77117 57.3291 5.77117C57.8364 5.77117 58.2737 5.85863 58.641 6.03356C59.0127 6.20848 59.3167 6.45338 59.5528 6.76825C59.789 7.07874 59.9639 7.44609 60.0776 7.87028C60.1913 8.29011 60.2482 8.74929 60.2482 9.24783V9.79229H54.9479V8.80177H59.0346V8.70993C59.0171 8.39506 58.9515 8.08894 58.8378 7.79157C58.7285 7.49419 58.5536 7.2493 58.313 7.05688C58.0725 6.86446 57.7445 6.76825 57.3291 6.76825C57.0536 6.76825 56.7999 6.82729 56.5681 6.94536C56.3364 7.05906 56.1374 7.22962 55.9712 7.45702C55.805 7.68443 55.676 7.96212 55.5842 8.29011C55.4923 8.6181 55.4464 8.99637 55.4464 9.42494V9.70045C55.4464 10.0372 55.4923 10.3542 55.5842 10.6516C55.6804 10.9446 55.8181 11.2026 55.9974 11.4257C56.1811 11.6487 56.402 11.8236 56.66 11.9504C56.9224 12.0773 57.2197 12.1407 57.5521 12.1407C57.9807 12.1407 58.3436 12.0532 58.641 11.8783C58.9384 11.7034 59.1986 11.4694 59.4216 11.1764L60.1563 11.7602C60.0033 11.992 59.8087 12.2128 59.5725 12.4227C59.3364 12.6327 59.0455 12.8032 58.7001 12.9344C58.359 13.0656 57.9544 13.1312 57.4865 13.1312Z" fill="#4C79BD"/>
<path d="M65.1804 5.90236V13H63.9603V5.90236H65.1804ZM63.8684 4.01972C63.8684 3.82293 63.9275 3.65675 64.0456 3.52118C64.168 3.38561 64.3473 3.31783 64.5835 3.31783C64.8152 3.31783 64.9924 3.38561 65.1148 3.52118C65.2416 3.65675 65.305 3.82293 65.305 4.01972C65.305 4.20776 65.2416 4.36957 65.1148 4.50514C64.9924 4.63633 64.8152 4.70193 64.5835 4.70193C64.3473 4.70193 64.168 4.63633 64.0456 4.50514C63.9275 4.36957 63.8684 4.20776 63.8684 4.01972ZM72.8786 11.6225V2.92424H74.0988V13H72.9836L72.8786 11.6225ZM68.1032 9.5299V9.39214C68.1032 8.84987 68.1688 8.35789 68.2999 7.9162C68.4355 7.47014 68.6257 7.08749 68.8706 6.76825C69.1199 6.44901 69.4151 6.20411 69.7562 6.03356C70.1017 5.85863 70.4865 5.77117 70.9107 5.77117C71.3568 5.77117 71.746 5.84989 72.0784 6.00732C72.4151 6.16038 72.6993 6.3856 72.9311 6.68297C73.1673 6.97597 73.3531 7.3302 73.4887 7.74565C73.6243 8.1611 73.7183 8.63121 73.7708 9.15599V9.75949C73.7227 10.2799 73.6286 10.7478 73.4887 11.1633C73.3531 11.5787 73.1673 11.9329 72.9311 12.226C72.6993 12.519 72.4151 12.7442 72.0784 12.9016C71.7416 13.0547 71.348 13.1312 70.8976 13.1312C70.4822 13.1312 70.1017 13.0415 69.7562 12.8622C69.4151 12.6829 69.1199 12.4315 68.8706 12.1079C68.6257 11.7843 68.4355 11.4038 68.2999 10.9665C68.1688 10.5248 68.1032 10.0459 68.1032 9.5299ZM69.3233 9.39214V9.5299C69.3233 9.88412 69.3583 10.2165 69.4282 10.527C69.5026 10.8375 69.6163 11.1108 69.7693 11.3469C69.9224 11.5831 70.117 11.769 70.3531 11.9045C70.5893 12.0357 70.8714 12.1013 71.1993 12.1013C71.6017 12.1013 71.9319 12.016 72.1899 11.8455C72.4523 11.6749 72.6622 11.4497 72.8196 11.1698C72.977 10.89 73.0995 10.586 73.187 10.258V8.67713C73.1345 8.43661 73.0579 8.20483 72.9574 7.9818C72.8612 7.7544 72.7343 7.55323 72.5769 7.3783C72.4238 7.19901 72.2336 7.05688 72.0062 6.95192C71.7832 6.84697 71.5186 6.79449 71.2125 6.79449C70.8801 6.79449 70.5937 6.86446 70.3531 7.0044C70.117 7.13997 69.9224 7.32801 69.7693 7.56854C69.6163 7.80469 69.5026 8.0802 69.4282 8.39506C69.3583 8.70556 69.3233 9.03792 69.3233 9.39214Z" fill="#201F14"/>
<defs>
<linearGradient id="paint0_linear_114_31" x1="7.5" y1="0" x2="7.5" y2="15" gradientUnits="userSpaceOnUse">
<stop stop-color="#65A3FF"/>
<stop offset="1" stop-color="#4269A4"/>
</linearGradient>
</defs>
</svg>
